<svg version="1" xmlns="http://www.w3.org/2000/svg" width="1244" height="1244" viewBox="0 0 933.000000 933.000000"><path
  d="M204.5 70.8c-3.3 1.3-6.9 2.8-8 3.3-1.1.4-4.1 1.7-6.7 2.8-2.6 1.2-4.9 2.1-5.2 2.1-.5 0-72.7 28.4-76.1 30-1.1.5-10.8 4.3-21.5 8.5-10.7 4.1-20.4 8-21.5 8.4-1.1.5-7.4 3-14 5.6-6.6 2.5-12.9 5-14 5.5-1.1.5-9.9 4-19.5 7.8L.5 151.6.3 507.8C.2 703.7.4 863.9.8 863.6c.4-.2 5.4-2.2 11.2-4.5 5.8-2.3 11.9-4.9 13.7-5.6 1.7-.8 3.6-1.5 4.2-1.5.6 0 1.9-.4 2.9-1 .9-.5 4.6-2.1 8.2-3.5 3.6-1.4 7.4-3 8.5-3.5 2.5-1.1 19.6-8 21-8.4.6-.2 2.4-.8 4-1.5 1.7-.7 8.6-3.5 15.5-6.2 6.9-2.8 13.9-5.7 15.7-6.5 1.7-.8 3.7-1.4 4.5-1.4.7 0 2.2-.6 3.3-1.4 1.1-.7 3.8-1.9 6-2.6 2.2-.7 4.9-1.7 6-2.3 1.1-.6 2.5-1.2 3-1.3.6-.2 14.5-5.7 31-12.4s30.5-12.3 31-12.4c1.5-.4 4.1-1.5 12.7-5.1 4.2-1.8 7.9-3 8.2-2.7.7.6.7-2.5.6-21.6 0-7 0-14.5.1-16.7.1-2.2.1-4.8.1-5.8-.1-.9-.2-2.3-.2-3-.2-2.3-.1-51.2.1-55.2.1-2.2.1-4.8.1-5.8-.1-.9-.2-2.3-.2-3-.2-2.3-.1-51.2.1-55.2.1-2.2.1-4.8.1-5.8-.1-.9-.2-2.3-.2-3-.2-2.3-.1-51.2.1-55.2.1-2.2.1-4.8.1-5.8-.1-.9-.2-2.3-.2-3-.1-.6-.1-9.8 0-20.4.1-10.6-.1-19.7-.5-20.3-.3-.5-.3-1 .2-1 .4 0 .7-9.3.5-20.7-.2-11.5-.2-22.6-.1-24.8.1-2.2.1-4.8.1-5.8-.1-.9-.2-2.3-.2-3-.1-.6-.1-9.8 0-20.4.1-10.6-.1-19.7-.5-20.3-.3-.5-.3-1 .2-1 .4 0 .7-5.7.5-12.7-.1-7.1-.2-14.6-.1-16.8.2-3.6.1-4.8-.1-8.8-.2-1.9-.1-18.7.1-23.2.1-2.2.1-4.8.1-5.8-.1-.9-.2-2.3-.2-3-.1-.6 0-6.2 0-12.4.1-6.2-.1-11.7-.5-12.3-.3-.5-.3-1 .2-1 .4 0 .7-9.3.5-20.7-.2-11.5-.2-22.6-.1-24.8.1-2.2.1-4.8.1-5.8-.1-.9-.2-2.3-.2-3-.1-.6-.1-9.8 0-20.4.1-10.6-.1-19.7-.5-20.3-.3-.5-.3-1 .2-1 .4 0 .7-5.7.5-12.7-.1-7.1-.2-14.6-.1-16.8.2-3.6.1-4.8-.1-8.8-.2-1.9-.1-18.7.1-23.2.1-2.2.1-4.8.1-5.8-.1-.9-.2-2.3-.2-3-.1-.6 0-6.2 0-12.4.1-6.2-.1-11.7-.5-12.3-.3-.5-.3-1 .2-1 1 0 .7-45.1-.4-46-.4-.4-3.5.4-6.8 1.8zM244 69.3c-.6 16.9.1 709.1.7 709.6.4.5 4.6 2.3 9.3 4.1 4.7 1.8 9.9 3.9 11.5 4.6 1.7.7 6.6 2.7 11 4.4 4.4 1.8 9.4 3.8 11 4.5 1.7.7 6.2 2.5 10 3.9 3.9 1.5 7.9 3.1 9 3.6 1.1.5 4.5 1.9 7.5 3s6.4 2.4 7.5 2.9c4.7 2.1 9.7 4.1 21 8.6 6.6 2.6 13.4 5.3 15 6 1.7.7 8.4 3.4 15 5.9 6.6 2.6 12.9 5.1 14 5.6 1.1.5 5.6 2.3 10 4 4.4 1.7 9.4 3.7 11 4.4 1.7.8 6.2 2.6 10 4 3.9 1.5 8.4 3.3 10 4 1.7.8 5.9 2.5 9.5 3.8 3.6 1.4 7.4 2.9 8.5 3.3 1.1.5 2.2.9 2.5 1 .3.1 2.2.9 4.4 1.8 4.4 2 4.9 2 4.1.8-.3-.5-.5-6.1-.5-12.3 0-6.2-.1-14.5-.1-18.3-.1-3.9-.1-7.8 0-8.8.2-4.6.2-27 0-39.2-.1-6.6-.1-8.8.2-11.8 0-.6.1-5.3 0-10.2v-10.8-16.2-15.8c0-4.4-.1-25.4-.2-31.2-.1-3.9-.1-7.8 0-8.8.2-4.6.2-27 0-39.2-.1-3.9-.1-7.8 0-8.8.2-4.6.2-27 0-39.2-.1-6.6-.1-8.8.2-11.8 0-.6.1-5.3 0-10.2v-10.8-32.5-8.2-8-13.5V484v-9.5c.1-16.3-.1-24.7-.7-25.6-.3-.5 0-.9.6-.9s.8-.5.4-1.1c-.3-.6-.6-6.5-.5-13.2.1-6.7.2-12.9.2-13.7v-9.5c.1-16.3-.1-24.7-.7-25.6-.3-.5 0-.9.6-.9s.8-.5.4-1.1c-.3-.6-.6-6.5-.5-13.2.1-6.7.2-12.9.2-13.7v-9.5c.1-16.3-.1-24.7-.7-25.6-.3-.5 0-.9.6-.9s.8-.5.4-1.1c-.3-.6-.6-6.5-.5-13.2.1-6.7.2-12.9.2-13.7v-9.5c.1-16.3-.1-24.7-.7-25.6-.3-.5 0-.9.6-.9s.8-.5.4-1.1c-.3-.6-.6-6.5-.5-13.2.1-6.7.2-12.9.2-13.7v-9.5c.1-16.3-.1-24.7-.7-25.6-.3-.5 0-.9.6-.9s.8-.5.5-1.1c-.4-.6-.7-6.1-.6-12.2.2-15.9.1-21.9-.3-24.2-.2-1.5-4.3-3.5-18.2-9-9.8-3.9-18.8-7.5-19.9-8-1.1-.4-2.2-.9-2.5-1-1.2-.4-10.9-4.3-17.5-7-1.6-.7-15.1-6.1-30-12-14.8-5.9-28.3-11.3-30-12-1.6-.7-14.5-5.9-28.5-11.4-14-5.6-26.4-10.6-27.5-11.1-1.1-.5-9-3.6-17.5-7-8.5-3.3-16.5-6.5-17.7-7-1.7-.7-2.3-.6-2.3.3zM683.3 70.5c-2.9 1.3-5.3 2.1-5.3 1.8 0-.3-.6-.1-1.2.5-.7.5-11.1 5.1-23 10.1-12 5-23.7 9.9-26 11-2.4 1-16.9 7.2-32.3 13.6-38.5 16.2-48.6 20.4-51.5 21.7-1.4.6-3.6 1.5-5 2.1-1.4.5-3.3 1.3-4.3 1.8-.9.5-5.2 2.3-9.5 4-4.2 1.7-9.5 3.9-11.7 4.9-2.2 1-8.5 3.7-13.9 5.9-5.5 2.3-10.4 4.6-11 5-.8.7-1.1 104.4-1 355.3.1 194.8.2 354.6.3 355 .1.6 6.7-2 18.6-7.3 4-1.8 9.6-4.1 10.5-4.4.3-.1 2.2-.9 4.4-1.8 2.1-.9 4-1.7 4.2-1.7.2 0 2.3-.9 4.7-1.9 2.3-1.1 7.1-3.2 10.7-4.6 3.6-1.5 8.3-3.5 10.5-4.5 9.2-4.3 50.1-21.2 51.3-21.3.6 0 1.2-.3 1.2-.7 0-.3 1.7-1.2 3.8-1.9 2-.8 5.5-2.1 7.7-3.1s9.6-4.1 16.5-6.9c6.9-2.9 13.9-5.8 15.5-6.6 1.7-.7 9.1-3.8 16.5-6.9 14.4-6.1 15.5-6.5 21.3-9l3.7-1.7V423.5c0-195.5-.1-355.5-.2-355.4-.2 0-2.7 1.1-5.5 2.4zM721 423.3v355.4l2.3 1c4.4 2.1 12.4 5.3 20.2 8.3 4.4 1.7 8.9 3.5 10 4 1.1.5 7.9 3.2 15 6 7.2 2.9 14.4 5.8 16 6.5 1.7.7 4.1 1.6 5.5 2 1.4.4 5.3 2.1 8.8 3.6 3.4 1.6 6.7 2.9 7.2 2.9s3.1 1 5.7 2.1c2.7 1.2 5.7 2.5 6.8 2.9 1.1.5 5.6 2.3 10 4 10.7 4.4 12.8 5.2 21 8.5 3.9 1.5 8.4 3.3 10 4 1.7.7 9.5 3.8 17.5 6.9 8 3.2 15.9 6.3 17.5 7.1 1.7.7 7.3 2.9 12.5 5 5.2 2 10.4 4 11.5 4.5 3.8 1.8 12.6 5 13.5 5 .5 0 .8-145.8.7-355.7l-.2-355.6-8-3.2c-4.4-1.7-18.6-7.4-31.5-12.5-12.9-5.1-33.6-13.3-46-18.2-12.4-5-22.9-9.1-23.5-9.2-.5-.1-1.4-.4-2-.7-1-.6-18.3-7.5-31-12.3-3.8-1.5-7.9-3.1-9-3.6-1.1-.5-10.8-4.4-21.5-8.5-10.7-4.2-21.5-8.5-24-9.5s-6.9-2.8-9.7-3.9L721 68v355.3z"/></svg>
