<svg viewBox="0 0 1024 1024" xmlns="http://www.w3.org/2000/svg" xmlns:xlink="http://www.w3.org/1999/xlink"><linearGradient id="a" gradientUnits="userSpaceOnUse" x1="512" x2="512" y1="1024"><stop offset="0" stop-color="#04b622"/><stop offset="1" stop-color="#66ff80"/></linearGradient><path d="m0 0h1024v1024h-1024z" fill="url(#a)"/><g fill="#fff"><path d="m412.69 703.16c0 5.7-4.79 12.13-10.64 14.29l-135.41 49.84c-5.85 2.15-10.64-.75-10.64-6.45v-440c0-5.7 4.79-12.13 10.64-14.29l135.41-49.84c5.85-2.15 10.64.75 10.64 6.45z"/><path d="m590.34 760.84c0 5.7-4.79 8.6-10.64 6.45l-135.4-49.84c-5.86-2.16-10.64-8.59-10.64-14.29v-440c0-5.7 4.78-8.6 10.64-6.45l135.4 49.84c5.85 2.16 10.64 8.59 10.64 14.29z"/><path d="m768 703.16c0 5.7-4.79 12.13-10.64 14.29l-135.36 49.84c-5.85 2.15-10.64-.75-10.64-6.45v-440c0-5.7 4.79-12.13 10.64-14.29l135.41-49.84c5.85-2.15 10.64.75 10.64 6.45v440z"/></g></svg>